<svg width="500" height="500" viewBox="0 0 500 500" fill="none" xmlns="http://www.w3.org/2000/svg">
<g clip-path="url(#clip0_3609_12856)">
<rect width="500" height="500" fill="#CFE3F3"/>
<rect x="150" y="251" width="390" height="206" rx="11" stroke="#8E8E8E" stroke-width="2"/>
<mask id="path-2-inside-1_3609_12856" fill="white">
<path d="M283 362C283 371.691 280.126 381.165 274.742 389.223C269.358 397.281 261.705 403.561 252.751 407.27C243.798 410.979 233.946 411.949 224.441 410.058C214.936 408.168 206.205 403.501 199.352 396.648C192.499 389.795 187.832 381.064 185.942 371.559C184.051 362.054 185.021 352.202 188.73 343.249C192.439 334.295 198.719 326.642 206.777 321.258C214.835 315.874 224.309 313 234 313L234 362H283Z"/>
</mask>
<path d="M283 362C283 371.691 280.126 381.165 274.742 389.223C269.358 397.281 261.705 403.561 252.751 407.27C243.798 410.979 233.946 411.949 224.441 410.058C214.936 408.168 206.205 403.501 199.352 396.648C192.499 389.795 187.832 381.064 185.942 371.559C184.051 362.054 185.021 352.202 188.73 343.249C192.439 334.295 198.719 326.642 206.777 321.258C214.835 315.874 224.309 313 234 313L234 362H283Z" stroke="#8E8E8E" stroke-width="4" mask="url(#path-2-inside-1_3609_12856)"/>
<mask id="path-3-inside-2_3609_12856" fill="white">
<path d="M240 308C246.435 308 252.807 309.254 258.751 311.692C264.696 314.129 270.098 317.702 274.648 322.205C279.198 326.709 282.808 332.056 285.27 337.94C287.733 343.824 289 350.131 289 356.5L240 356.5L240 308Z"/>
</mask>
<path d="M240 308C246.435 308 252.807 309.254 258.751 311.692C264.696 314.129 270.098 317.702 274.648 322.205C279.198 326.709 282.808 332.056 285.27 337.94C287.733 343.824 289 350.131 289 356.5L240 356.5L240 308Z" stroke="#8E8E8E" stroke-width="4" mask="url(#path-3-inside-2_3609_12856)"/>
<rect width="167" height="23" transform="translate(329 302)" fill="#D5D5D5"/>
<rect width="167" height="23" transform="translate(329 342)" fill="#D5D5D5"/>
<rect width="167" height="23" transform="translate(329 382)" fill="#D5D5D5"/>
<path d="M180.967 291V279.714H185.296C185.909 279.714 186.463 279.867 186.957 280.174C187.451 280.48 187.844 280.891 188.134 281.407C188.424 281.918 188.569 282.485 188.569 283.108C188.569 283.618 188.475 284.089 188.287 284.519C188.104 284.943 187.846 285.311 187.513 285.623C187.185 285.935 186.806 286.171 186.377 286.332L189.077 291H186.812L184.2 286.51H182.934V291H180.967ZM182.934 284.543H185.071C185.35 284.543 185.605 284.473 185.836 284.333C186.068 284.194 186.253 284.005 186.393 283.769C186.532 283.533 186.602 283.269 186.602 282.979C186.602 282.683 186.532 282.417 186.393 282.181C186.253 281.944 186.068 281.756 185.836 281.617C185.605 281.477 185.35 281.407 185.071 281.407H182.934V284.543ZM193.615 291.21C192.873 291.21 192.196 291.019 191.583 290.637C190.976 290.256 190.49 289.742 190.124 289.098C189.764 288.453 189.584 287.741 189.584 286.961C189.584 286.375 189.689 285.827 189.899 285.317C190.108 284.801 190.396 284.349 190.761 283.962C191.132 283.57 191.562 283.264 192.051 283.043C192.54 282.823 193.061 282.713 193.615 282.713C194.244 282.713 194.819 282.847 195.34 283.116C195.867 283.379 196.313 283.742 196.678 284.204C197.044 284.666 197.31 285.193 197.476 285.784C197.643 286.375 197.68 286.994 197.589 287.638H191.696C191.772 287.939 191.895 288.211 192.067 288.453C192.239 288.689 192.457 288.88 192.72 289.025C192.983 289.165 193.282 289.237 193.615 289.243C193.959 289.248 194.271 289.167 194.55 289.001C194.835 288.829 195.071 288.598 195.259 288.308L197.267 288.775C196.939 289.49 196.45 290.076 195.799 290.532C195.149 290.984 194.421 291.21 193.615 291.21ZM191.632 286.163H195.598C195.539 285.841 195.413 285.551 195.219 285.293C195.031 285.029 194.797 284.82 194.518 284.664C194.238 284.508 193.937 284.43 193.615 284.43C193.292 284.43 192.994 284.508 192.72 284.664C192.446 284.814 192.212 285.021 192.019 285.285C191.831 285.542 191.702 285.835 191.632 286.163ZM200.868 295.031H198.901V282.939H200.868V283.962C201.131 283.597 201.453 283.301 201.835 283.076C202.222 282.845 202.673 282.729 203.189 282.729C203.781 282.729 204.331 282.839 204.842 283.06C205.352 283.28 205.801 283.586 206.188 283.979C206.58 284.366 206.884 284.814 207.099 285.325C207.319 285.835 207.43 286.384 207.43 286.969C207.43 287.555 207.319 288.106 207.099 288.622C206.884 289.138 206.58 289.592 206.188 289.984C205.801 290.371 205.352 290.675 204.842 290.895C204.331 291.116 203.781 291.226 203.189 291.226C202.673 291.226 202.222 291.113 201.835 290.887C201.453 290.656 201.131 290.358 200.868 289.992V295.031ZM203.165 284.623C202.757 284.623 202.391 284.731 202.069 284.946C201.746 285.156 201.494 285.438 201.311 285.792C201.128 286.147 201.037 286.539 201.037 286.969C201.037 287.399 201.128 287.794 201.311 288.154C201.494 288.509 201.746 288.794 202.069 289.009C202.391 289.218 202.757 289.323 203.165 289.323C203.579 289.323 203.958 289.218 204.302 289.009C204.646 288.799 204.92 288.517 205.124 288.162C205.328 287.802 205.43 287.405 205.43 286.969C205.43 286.539 205.328 286.147 205.124 285.792C204.92 285.438 204.646 285.156 204.302 284.946C203.963 284.731 203.584 284.623 203.165 284.623ZM212.272 291.21C211.531 291.21 210.854 291.019 210.241 290.637C209.634 290.256 209.147 289.745 208.782 289.106C208.422 288.461 208.242 287.749 208.242 286.969C208.242 286.378 208.347 285.827 208.556 285.317C208.766 284.801 209.053 284.349 209.419 283.962C209.79 283.57 210.22 283.264 210.709 283.043C211.198 282.823 211.719 282.713 212.272 282.713C213.014 282.713 213.689 282.904 214.296 283.285C214.909 283.667 215.395 284.18 215.755 284.825C216.12 285.47 216.303 286.185 216.303 286.969C216.303 287.555 216.198 288.103 215.989 288.614C215.779 289.124 215.489 289.576 215.118 289.968C214.753 290.355 214.325 290.659 213.836 290.879C213.353 291.099 212.831 291.21 212.272 291.21ZM212.272 289.243C212.665 289.243 213.017 289.138 213.329 288.928C213.64 288.719 213.885 288.442 214.062 288.098C214.245 287.754 214.336 287.378 214.336 286.969C214.336 286.55 214.242 286.169 214.054 285.825C213.871 285.475 213.621 285.199 213.304 284.994C212.993 284.785 212.649 284.68 212.272 284.68C211.886 284.68 211.536 284.785 211.225 284.994C210.913 285.204 210.666 285.483 210.483 285.833C210.3 286.182 210.209 286.561 210.209 286.969C210.209 287.394 210.303 287.778 210.491 288.122C210.679 288.466 210.929 288.74 211.241 288.944C211.558 289.143 211.902 289.243 212.272 289.243ZM217.566 291L217.558 282.939H219.525L219.533 283.656C219.807 283.366 220.135 283.137 220.517 282.971C220.898 282.799 221.31 282.713 221.75 282.713C222.046 282.713 222.341 282.756 222.637 282.842L221.863 284.825C221.659 284.744 221.455 284.704 221.25 284.704C220.933 284.704 220.643 284.782 220.38 284.938C220.122 285.088 219.915 285.295 219.759 285.559C219.609 285.817 219.533 286.104 219.533 286.421V291H217.566ZM228.083 284.906H226.519V291H224.552V284.906H223.359V282.939H224.552V280.407H226.519V282.939H228.083V284.906Z" fill="black"/>
<rect x="-61" y="22" width="407" height="206" rx="11" stroke="#8E8E8E" stroke-width="2"/>
<rect width="233" height="23" transform="translate(76 84)" fill="#D5D5D5"/>
<rect width="30" height="23" transform="translate(31 84)" fill="#D5D5D5"/>
<path d="M39 93L45.5 99L67.5 77" stroke="white" stroke-width="3" stroke-linecap="round"/>
<rect width="30" height="23" transform="translate(31 124)" fill="#D5D5D5"/>
<rect width="30" height="23" transform="translate(31 164)" fill="#D5D5D5"/>
<rect width="233" height="23" transform="translate(76 124)" fill="#D5D5D5"/>
<rect width="233" height="23" transform="translate(76 164)" fill="#D5D5D5"/>
<path d="M41.641 56.3386L40.3834 55.0971C39.9427 55.4303 39.451 55.691 38.9082 55.8791C38.3708 56.0672 37.8038 56.1612 37.2072 56.1612C36.4441 56.1612 35.7266 56.0107 35.0549 55.7098C34.3831 55.4035 33.7919 54.9843 33.2814 54.4522C32.7708 53.9148 32.3704 53.2914 32.0802 52.582C31.79 51.8726 31.6449 51.1148 31.6449 50.3087C31.6449 49.5026 31.79 48.7475 32.0802 48.0434C32.3704 47.334 32.7708 46.7106 33.2814 46.1732C33.7919 45.6358 34.3831 45.2166 35.0549 44.9156C35.7266 44.6093 36.4441 44.4561 37.2072 44.4561C37.9758 44.4561 38.6959 44.6093 39.3677 44.9156C40.0395 45.2166 40.6306 45.6358 41.1412 46.1732C41.6517 46.7106 42.0494 47.334 42.3343 48.0434C42.6245 48.7475 42.7696 49.5026 42.7696 50.3087C42.7696 50.9375 42.6782 51.5367 42.4955 52.1064C42.3128 52.6707 42.0629 53.192 41.7458 53.6703L43.0275 54.952L41.641 56.3386ZM37.2072 54.1943C37.5189 54.1943 37.8253 54.1486 38.1262 54.0572C38.4272 53.9605 38.704 53.8261 38.9566 53.6541L37.9328 52.6304L39.3193 51.2357L40.2786 52.2031C40.4506 51.9236 40.5796 51.6227 40.6656 51.3002C40.7569 50.9778 40.8026 50.6473 40.8026 50.3087C40.8026 49.7713 40.7086 49.2688 40.5205 48.8012C40.3324 48.3337 40.0717 47.9225 39.7385 47.5678C39.4107 47.2078 39.0291 46.9283 38.5938 46.7294C38.1639 46.5252 37.7017 46.4231 37.2072 46.4231C36.7128 46.4231 36.2479 46.5252 35.8126 46.7294C35.3773 46.9337 34.9931 47.2158 34.6599 47.5759C34.332 47.9306 34.0741 48.3417 33.886 48.8093C33.7032 49.2768 33.6119 49.7766 33.6119 50.3087C33.6119 50.8407 33.7059 51.3432 33.894 51.8162C34.0821 52.2837 34.3401 52.6975 34.6679 53.0576C35.0011 53.4123 35.3827 53.6918 35.8126 53.896C36.2479 54.0948 36.7128 54.1943 37.2072 54.1943ZM44.0676 53.0173V47.9387H46.0345V52.5014C46.0345 52.8185 46.1125 53.1087 46.2683 53.372C46.4242 53.63 46.6311 53.8369 46.889 53.9927C47.1524 54.1432 47.4399 54.2184 47.7516 54.2184C48.0741 54.2184 48.3643 54.1432 48.6222 53.9927C48.8802 53.8369 49.0871 53.63 49.243 53.372C49.3988 53.1087 49.4767 52.8185 49.4767 52.5014V47.9387H51.4437L51.4518 56H49.4848L49.4767 55.2664C49.1973 55.5566 48.8668 55.7877 48.4852 55.9597C48.1036 56.1263 47.6952 56.2096 47.2599 56.2096C46.6741 56.2096 46.1393 56.0672 45.6557 55.7823C45.172 55.4921 44.785 55.1079 44.4948 54.6296C44.21 54.1459 44.0676 53.6085 44.0676 53.0173ZM56.4865 56.2096C55.7448 56.2096 55.0677 56.0188 54.455 55.6372C53.8477 55.2557 53.3613 54.7424 52.9959 54.0975C52.6358 53.4526 52.4558 52.7405 52.4558 51.9613C52.4558 51.3755 52.5606 50.8273 52.7702 50.3167C52.9798 49.8008 53.2673 49.3494 53.6327 48.9624C54.0036 48.5701 54.4335 48.2638 54.9226 48.0434C55.4116 47.8231 55.9329 47.7129 56.4865 47.7129C57.1152 47.7129 57.6903 47.8473 58.2116 48.116C58.7383 48.3793 59.1843 48.7421 59.5498 49.2043C59.9152 49.6665 60.1812 50.1931 60.3478 50.7843C60.5144 51.3755 60.5521 51.9935 60.4607 52.6384H54.5679C54.6431 52.9394 54.7667 53.2108 54.9387 53.4526C55.1107 53.6891 55.3283 53.8799 55.5916 54.025C55.855 54.1647 56.1533 54.2373 56.4865 54.2426C56.8304 54.248 57.1421 54.1674 57.4216 54.0008C57.7064 53.8288 57.9429 53.5977 58.131 53.3075L60.1382 53.7751C59.8104 54.4898 59.3214 55.0756 58.6711 55.5324C58.0208 55.9839 57.2926 56.2096 56.4865 56.2096ZM54.5034 51.1632H58.4696C58.4104 50.8407 58.2841 50.5505 58.0907 50.2926C57.9026 50.0292 57.6688 49.8196 57.3893 49.6638C57.1099 49.5079 56.8089 49.43 56.4865 49.43C56.164 49.43 55.8657 49.5079 55.5916 49.6638C55.3176 49.8143 55.0838 50.0212 54.8903 50.2845C54.7022 50.5425 54.5732 50.8354 54.5034 51.1632ZM64.2134 56.1451C63.7942 56.1182 63.3884 56.0349 62.9961 55.8952C62.6092 55.7501 62.2652 55.5539 61.9643 55.3067C61.6633 55.0595 61.4322 54.7639 61.271 54.42L62.9316 53.7106C62.9961 53.8181 63.1009 53.9336 63.246 54.0572C63.3911 54.1754 63.5631 54.2749 63.762 54.3555C63.9662 54.4361 64.1892 54.4764 64.431 54.4764C64.6353 54.4764 64.8287 54.4495 65.0115 54.3958C65.1996 54.3367 65.35 54.248 65.4629 54.1298C65.5811 54.0115 65.6402 53.8584 65.6402 53.6703C65.6402 53.4714 65.5704 53.3183 65.4307 53.2108C65.2963 53.0979 65.1243 53.0146 64.9147 52.9609C64.7105 52.9018 64.5117 52.848 64.3182 52.7996C63.8076 52.6975 63.332 52.539 62.8913 52.324C62.456 52.1091 62.104 51.8323 61.8353 51.4937C61.572 51.1498 61.4403 50.7359 61.4403 50.2523C61.4403 49.7202 61.58 49.2607 61.8595 48.8738C62.1443 48.4868 62.5124 48.1886 62.9639 47.979C63.4207 47.7694 63.9124 47.6646 64.4391 47.6646C65.0786 47.6646 65.6644 47.7989 66.1965 48.0676C66.7339 48.331 67.1585 48.7045 67.4702 49.1882L65.9143 50.1072C65.8391 49.9782 65.7343 49.8599 65.5999 49.7525C65.4656 49.6396 65.3124 49.5482 65.1404 49.4784C64.9685 49.4031 64.7884 49.3601 64.6003 49.3494C64.3585 49.3386 64.1381 49.3601 63.9393 49.4139C63.7405 49.4676 63.5792 49.559 63.4556 49.688C63.3374 49.8169 63.2783 49.9889 63.2783 50.2039C63.2783 50.4081 63.3589 50.5613 63.5201 50.6634C63.6813 50.7601 63.8748 50.8354 64.1005 50.8891C64.3316 50.9428 64.552 51.002 64.7616 51.0665C65.2345 51.2223 65.6779 51.4131 66.0917 51.6388C66.5109 51.8645 66.8468 52.1413 67.0994 52.4691C67.3519 52.797 67.4729 53.1893 67.4621 53.6461C67.4621 54.1674 67.3063 54.6242 66.9946 55.0165C66.6828 55.4035 66.2798 55.699 65.7854 55.9033C65.2963 56.1075 64.7723 56.1881 64.2134 56.1451ZM73.1626 49.9056H71.5987V56H69.6317V49.9056H68.4387V47.9387H69.6317V45.4074H71.5987V47.9387H73.1626V49.9056ZM74.4941 47.9387H76.4611V56H74.4941V47.9387ZM75.4937 46.8987C75.2035 46.8987 74.959 46.8047 74.7602 46.6166C74.5613 46.4231 74.4619 46.1813 74.4619 45.8911C74.4619 45.6062 74.5613 45.3671 74.7602 45.1736C74.959 44.9801 75.2008 44.8834 75.4857 44.8834C75.7705 44.8834 76.0097 44.9801 76.2031 45.1736C76.402 45.3671 76.5014 45.6062 76.5014 45.8911C76.5014 46.1813 76.4047 46.4231 76.2112 46.6166C76.0177 46.8047 75.7786 46.8987 75.4937 46.8987ZM81.7569 56.2096C81.0153 56.2096 80.3381 56.0188 79.7254 55.6372C79.1181 55.2557 78.6318 54.7451 78.2663 54.1056C77.9063 53.4607 77.7262 52.7486 77.7262 51.9693C77.7262 51.3782 77.831 50.8273 78.0406 50.3167C78.2502 49.8008 78.5377 49.3494 78.9032 48.9624C79.274 48.5701 79.7039 48.2638 80.193 48.0434C80.6821 47.8231 81.2034 47.7129 81.7569 47.7129C82.4985 47.7129 83.173 47.9037 83.7803 48.2853C84.393 48.6669 84.8793 49.1801 85.2394 49.825C85.6048 50.4699 85.7876 51.1847 85.7876 51.9693C85.7876 52.5551 85.6828 53.1033 85.4732 53.6138C85.2636 54.1244 84.9734 54.5758 84.6026 54.9681C84.2371 55.3551 83.8099 55.6587 83.3208 55.8791C82.8371 56.0994 82.3158 56.2096 81.7569 56.2096ZM81.7569 54.2426C82.1492 54.2426 82.5012 54.1378 82.8129 53.9282C83.1246 53.7186 83.3692 53.4419 83.5465 53.0979C83.7292 52.754 83.8206 52.3778 83.8206 51.9693C83.8206 51.5501 83.7266 51.1686 83.5385 50.8246C83.3557 50.4753 83.1058 50.1985 82.7888 49.9943C82.477 49.7847 82.1331 49.6799 81.7569 49.6799C81.37 49.6799 81.0206 49.7847 80.7089 49.9943C80.3972 50.2039 80.15 50.4833 79.9673 50.8327C79.7846 51.182 79.6932 51.5609 79.6932 51.9693C79.6932 52.3939 79.7872 52.7781 79.9753 53.1221C80.1634 53.466 80.4133 53.7401 80.725 53.9444C81.0421 54.1432 81.3861 54.2426 81.7569 54.2426ZM94.4269 50.9052V56H92.46V51.4212C92.46 51.1041 92.382 50.8166 92.2262 50.5586C92.0703 50.2953 91.8607 50.0883 91.5974 49.9379C91.3394 49.782 91.0519 49.7041 90.7348 49.7041C90.4178 49.7041 90.1276 49.782 89.8642 49.9379C89.6063 50.0883 89.3993 50.2953 89.2435 50.5586C89.093 50.8166 89.0178 51.1041 89.0178 51.4212V56H87.0508L87.0427 47.9387H89.0097L89.0178 48.6561C89.2919 48.3659 89.6197 48.1375 90.0013 47.9709C90.3828 47.7989 90.794 47.7129 91.2346 47.7129C91.8204 47.7129 92.3552 47.858 92.8389 48.1482C93.3225 48.4331 93.7068 48.8173 93.9916 49.301C94.2818 49.7793 94.4269 50.3141 94.4269 50.9052ZM103.417 50.9052V56H101.45V51.4212C101.45 51.1041 101.372 50.8166 101.216 50.5586C101.061 50.2953 100.851 50.0883 100.588 49.9379C100.33 49.782 100.042 49.7041 99.7251 49.7041C99.4081 49.7041 99.1179 49.782 98.8545 49.9379C98.5966 50.0883 98.3896 50.2953 98.2338 50.5586C98.0833 50.8166 98.0081 51.1041 98.0081 51.4212V56H96.0411L96.033 47.9387H98L98.0081 48.6561C98.2822 48.3659 98.61 48.1375 98.9916 47.9709C99.3731 47.7989 99.7843 47.7129 100.225 47.7129C100.811 47.7129 101.345 47.858 101.829 48.1482C102.313 48.4331 102.697 48.8173 102.982 49.301C103.272 49.7793 103.417 50.3141 103.417 50.9052ZM110.944 47.9387H112.911V56H110.944L110.855 55.0004C110.635 55.3605 110.342 55.6534 109.977 55.8791C109.617 56.0994 109.189 56.2096 108.695 56.2096C108.098 56.2096 107.54 56.0967 107.018 55.871C106.497 55.6453 106.037 55.3336 105.64 54.9359C105.247 54.5382 104.938 54.0787 104.713 53.5574C104.492 53.0361 104.382 52.4772 104.382 51.8807C104.382 51.3056 104.487 50.7655 104.697 50.2603C104.912 49.7551 105.21 49.3118 105.591 48.9302C105.973 48.5486 106.414 48.2504 106.913 48.0354C107.413 47.8204 107.951 47.7129 108.526 47.7129C109.058 47.7129 109.533 47.8312 109.953 48.0676C110.377 48.3041 110.737 48.6051 111.033 48.9705L110.944 47.9387ZM108.647 54.3152C109.066 54.3152 109.437 54.2104 109.759 54.0008C110.082 53.7912 110.334 53.509 110.517 53.1543C110.7 52.7943 110.791 52.3993 110.791 51.9693C110.791 51.534 110.7 51.139 110.517 50.7843C110.334 50.4242 110.079 50.1394 109.751 49.9298C109.429 49.7202 109.06 49.6154 108.647 49.6154C108.233 49.6154 107.854 49.7229 107.51 49.9379C107.171 50.1475 106.9 50.4296 106.696 50.7843C106.497 51.139 106.398 51.534 106.398 51.9693C106.398 52.4046 106.5 52.7996 106.704 53.1543C106.908 53.509 107.179 53.7912 107.518 54.0008C107.862 54.2104 108.238 54.3152 108.647 54.3152ZM114.517 47.9387H116.484V56H114.517V47.9387ZM115.517 46.8987C115.227 46.8987 114.982 46.8047 114.783 46.6166C114.585 46.4231 114.485 46.1813 114.485 45.8911C114.485 45.6062 114.585 45.3671 114.783 45.1736C114.982 44.9801 115.224 44.8834 115.509 44.8834C115.794 44.8834 116.033 44.9801 116.226 45.1736C116.425 45.3671 116.525 45.6062 116.525 45.8911C116.525 46.1813 116.428 46.4231 116.235 46.6166C116.041 46.8047 115.802 46.8987 115.517 46.8987ZM118.367 56L118.359 47.9387H120.326L120.334 48.6561C120.608 48.3659 120.936 48.1375 121.318 47.9709C121.699 47.7989 122.11 47.7129 122.551 47.7129C122.847 47.7129 123.142 47.7559 123.438 47.8419L122.664 49.825C122.46 49.7444 122.256 49.7041 122.051 49.7041C121.734 49.7041 121.444 49.782 121.181 49.9379C120.923 50.0883 120.716 50.2953 120.56 50.5586C120.409 50.8166 120.334 51.1041 120.334 51.4212V56H118.367ZM127.511 56.2096C126.77 56.2096 126.093 56.0188 125.48 55.6372C124.873 55.2557 124.386 54.7424 124.021 54.0975C123.661 53.4526 123.481 52.7405 123.481 51.9613C123.481 51.3755 123.585 50.8273 123.795 50.3167C124.005 49.8008 124.292 49.3494 124.658 48.9624C125.028 48.5701 125.458 48.2638 125.947 48.0434C126.437 47.8231 126.958 47.7129 127.511 47.7129C128.14 47.7129 128.715 47.8473 129.236 48.116C129.763 48.3793 130.209 48.7421 130.575 49.2043C130.94 49.6665 131.206 50.1931 131.373 50.7843C131.539 51.3755 131.577 51.9935 131.486 52.6384H125.593C125.668 52.9394 125.792 53.2108 125.964 53.4526C126.136 53.6891 126.353 53.8799 126.617 54.025C126.88 54.1647 127.178 54.2373 127.511 54.2426C127.855 54.248 128.167 54.1674 128.446 54.0008C128.731 53.8288 128.968 53.5977 129.156 53.3075L131.163 53.7751C130.835 54.4898 130.346 55.0756 129.696 55.5324C129.046 55.9839 128.317 56.2096 127.511 56.2096ZM125.528 51.1632H129.494C129.435 50.8407 129.309 50.5505 129.116 50.2926C128.927 50.0292 128.694 49.8196 128.414 49.6638C128.135 49.5079 127.834 49.43 127.511 49.43C127.189 49.43 126.891 49.5079 126.617 49.6638C126.342 49.8143 126.109 50.0212 125.915 50.2845C125.727 50.5425 125.598 50.8354 125.528 51.1632Z" fill="black"/>
<path d="M39 174L45.5 180L67.5 158" stroke="white" stroke-width="3" stroke-linecap="round"/>
<path d="M164.573 395.407L128.613 417.766C127.716 418.323 128.184 419.71 129.235 419.61L145.843 418.036C146.316 417.991 146.756 418.286 146.894 418.742L152.098 435.943C152.385 436.889 153.723 436.891 154.012 435.946L166.057 396.549C166.327 395.666 165.357 394.92 164.573 395.407Z" fill="#FFF3CC"/>
<path d="M332.639 83.4074L368.599 105.766C369.496 106.323 369.028 107.71 367.977 107.61L351.369 106.036C350.895 105.991 350.456 106.286 350.318 106.742L345.113 123.943C344.827 124.889 343.489 124.891 343.2 123.946L331.155 84.5491C330.885 83.6656 331.855 82.9196 332.639 83.4074Z" fill="#FFF3CC"/>
<rect x="47" y="425" width="94.4602" height="41.9141" rx="8.95706" fill="#FFF3CC"/>
<path d="M76.9564 442.047C77.3549 441.649 77.5787 441.109 77.5788 440.545C77.5789 439.982 77.3551 439.442 76.9568 439.043C76.5585 438.645 76.0182 438.421 75.4548 438.421C74.8914 438.421 74.3511 438.645 73.9527 439.043L63.8954 449.102C63.7204 449.277 63.591 449.492 63.5186 449.728L62.5231 453.007C62.5036 453.073 62.5022 453.142 62.5188 453.208C62.5355 453.274 62.5698 453.334 62.6179 453.382C62.666 453.43 62.7263 453.464 62.7922 453.481C62.8582 453.497 62.9274 453.496 62.9926 453.476L66.2729 452.481C66.5089 452.41 66.7237 452.281 66.8984 452.107L76.9564 442.047Z" stroke="#020617" stroke-width="1.13037" stroke-linecap="round" stroke-linejoin="round"/>
<path d="M85.66 452.957V438.957H94.44V441.397H88.1V444.237H93.13V446.677H88.1V450.517H94.44V452.957H85.66ZM96.6951 452.957V438.957H101.335C102.302 438.957 103.205 439.14 104.045 439.507C104.892 439.867 105.635 440.37 106.275 441.017C106.922 441.657 107.425 442.4 107.785 443.247C108.152 444.087 108.335 444.99 108.335 445.957C108.335 446.924 108.152 447.83 107.785 448.677C107.425 449.517 106.922 450.26 106.275 450.907C105.635 451.547 104.892 452.05 104.045 452.417C103.205 452.777 102.302 452.957 101.335 452.957H96.6951ZM99.1351 450.517H101.335C101.955 450.517 102.538 450.4 103.085 450.167C103.638 449.927 104.125 449.6 104.545 449.187C104.965 448.767 105.295 448.284 105.535 447.737C105.775 447.184 105.895 446.59 105.895 445.957C105.895 445.324 105.775 444.734 105.535 444.187C105.295 443.64 104.965 443.157 104.545 442.737C104.125 442.317 103.642 441.99 103.095 441.757C102.548 441.517 101.962 441.397 101.335 441.397H99.1351V450.517ZM110.257 452.957V438.957H112.697V452.957H110.257ZM126.006 438.957V441.397H121.726V452.957H119.286V441.397H115.006V438.957H126.006Z" fill="black"/>
<rect x="357" y="113" width="94.4602" height="41.9141" rx="8.95706" fill="#FFF3CC"/>
<path d="M386.956 130.047C387.355 129.649 387.579 129.109 387.579 128.545C387.579 127.982 387.355 127.442 386.957 127.043C386.558 126.645 386.018 126.421 385.455 126.421C384.891 126.421 384.351 126.645 383.953 127.043L373.895 137.102C373.72 137.277 373.591 137.492 373.519 137.728L372.523 141.007C372.504 141.073 372.502 141.142 372.519 141.208C372.536 141.274 372.57 141.334 372.618 141.382C372.666 141.43 372.726 141.464 372.792 141.481C372.858 141.497 372.927 141.496 372.993 141.476L376.273 140.481C376.509 140.41 376.724 140.281 376.898 140.107L386.956 130.047Z" stroke="#020617" stroke-width="1.13037" stroke-linecap="round" stroke-linejoin="round"/>
<path d="M395.66 140.957V126.957H404.44V129.397H398.1V132.237H403.13V134.677H398.1V138.517H404.44V140.957H395.66ZM406.695 140.957V126.957H411.335C412.302 126.957 413.205 127.14 414.045 127.507C414.892 127.867 415.635 128.37 416.275 129.017C416.922 129.657 417.425 130.4 417.785 131.247C418.152 132.087 418.335 132.99 418.335 133.957C418.335 134.924 418.152 135.83 417.785 136.677C417.425 137.517 416.922 138.26 416.275 138.907C415.635 139.547 414.892 140.05 414.045 140.417C413.205 140.777 412.302 140.957 411.335 140.957H406.695ZM409.135 138.517H411.335C411.955 138.517 412.538 138.4 413.085 138.167C413.638 137.927 414.125 137.6 414.545 137.187C414.965 136.767 415.295 136.284 415.535 135.737C415.775 135.184 415.895 134.59 415.895 133.957C415.895 133.324 415.775 132.734 415.535 132.187C415.295 131.64 414.965 131.157 414.545 130.737C414.125 130.317 413.642 129.99 413.095 129.757C412.548 129.517 411.962 129.397 411.335 129.397H409.135V138.517ZM420.257 140.957V126.957H422.697V140.957H420.257ZM436.006 126.957V129.397H431.726V140.957H429.286V129.397H425.006V126.957H436.006Z" fill="black"/>
</g>
<defs>
<clipPath id="clip0_3609_12856">
<rect width="500" height="500" fill="white"/>
</clipPath>
</defs>
</svg>
